<?xml version="1.0" encoding="UTF-8"?>
<svg width="83px" height="40px" viewBox="0 0 83 40" version="1.1" xmlns="http://www.w3.org/2000/svg" xmlns:xlink="http://www.w3.org/1999/xlink">
    <!-- Generator: Sketch 54.1 (76490) - https://sketchapp.com -->
    <title>icons/pattern/curves</title>
    <desc>Created with Sketch.</desc>
    <g id="Landing-Desktop" stroke="none" stroke-width="1" fill="none" fill-rule="evenodd">
        <g id="Landing-Popup-Opening" transform="translate(-678.000000, -265.000000)" fill="#3C86F4">
            <g id="Modal" transform="translate(480.000000, 225.000000)">
                <g id="icons/pattern/curves" transform="translate(198.500000, 40.000000)">
                    <g>
                        <path d="M67.9481714,39.5398286 C67.3544571,39.5398286 66.7607429,39.5284 66.1670286,39.5432571 C65.7230286,39.5546857 65.5110286,39.4255429 65.4676,38.9198286 C65.3687429,37.7826857 65.0807429,36.6866857 64.6173143,35.6301143 C63.9498857,34.1089714 63.2453143,32.6118286 62.3253143,31.2232571 C62.1750286,30.9964 62.0276,30.7638286 61.9161714,30.5164 C60.7670286,27.9649714 59.0230286,25.8964 56.9756,23.9992571 C55.0230286,22.1901143 53.0310286,20.4632571 50.7476,19.0912571 C48.5504571,17.7712571 46.2218857,16.6529714 43.7258857,16.1478286 C41.7338857,15.7449714 39.6407429,15.7826857 37.5898857,15.7381143 C34.9378857,15.6809714 32.3544571,16.1832571 29.9013143,17.1741143 C28.2298857,17.8495429 26.5670286,18.6026857 25.0264571,19.5295429 C23.3298857,20.5506857 21.9053143,21.9489714 20.6350286,23.4861143 C19.0458857,25.4095429 17.8550286,27.5569714 16.9658857,29.8815429 C16.4356,31.2684 15.8647429,32.6455429 15.7041714,34.1392571 C15.5881714,35.2198286 15.5121714,36.3049714 15.4253143,37.3889714 C15.3630286,38.1644 15.3727429,38.2255429 14.5704571,38.2844 C13.4116,38.3695429 12.2458857,38.3592571 11.0824571,38.3826857 C10.6258857,38.3918286 10.5258857,38.1244 10.5127429,37.7084 C10.4636,36.1221143 10.7521714,34.5741143 10.9344571,33.0089714 C11.3138857,29.7455429 12.5190286,26.8106857 14.0990286,23.9729714 C15.4458857,21.5535429 17.2544571,19.5501143 19.3407429,17.7775429 C20.5264571,16.7689714 21.6904571,15.6906857 23.0184571,14.9044 C24.6047429,13.9655429 26.3556,13.3032571 28.0361714,12.5244 C30.0476,11.5924 32.1773143,11.0438286 34.3470286,10.6655429 C36.1773143,10.3461143 38.0218857,10.2335429 39.8904571,10.3432571 C42.5784571,10.5015429 45.1721714,11.1158286 47.7281714,11.8695429 C49.8870286,12.5055429 51.9796,13.3444 53.8898857,14.5815429 C54.8013143,15.1706857 55.8241714,15.6026857 56.6818857,16.2558286 C58.2544571,17.4535429 59.7841714,18.7164 61.2510286,20.0404 C62.3333143,21.0164 63.2841714,22.1375429 64.2996,23.1878286 C65.5350286,24.4655429 66.3910286,26.0072571 67.3338857,27.4906857 C68.7373143,29.6998286 69.8436,32.0484 70.4727429,34.5855429 C70.8161714,35.9695429 70.9338857,37.4101143 71.1493143,38.8261143 C71.2024571,39.1781143 71.0858857,39.3884 70.6864571,39.4164 C69.7750286,39.4798286 68.8653143,39.5678286 67.9550286,39.6461143 C67.9527429,39.6106857 67.9504571,39.5752571 67.9481714,39.5398286" id="Fill-4"></path>
                        <path d="M58.7991429,39.83 C58.1625714,39.7951429 57.5682857,39.7728571 56.9762857,39.726 C56.5865714,39.6951429 56.4042857,39.4808571 56.3031429,39.0751429 C56.0905714,38.2185714 55.862,37.3522857 55.5094286,36.5471429 C54.7517143,34.8174286 53.7551429,33.2031429 52.4974286,31.8037143 C51.6442857,30.854 50.5974286,30.0631429 49.5734286,29.2854286 C48.6888571,28.6134286 47.6917143,28.0911429 46.7831429,27.4471429 C45.3597143,26.438 43.7357143,25.9482857 42.0945714,25.4551429 C38.3134286,24.3191429 34.698,24.83 31.1917143,26.4734286 C30.0408571,27.0128571 29.0528571,27.7648571 28.2151429,28.7591429 C26.8722857,30.3505714 25.8117143,32.098 25.0991429,34.0362857 C24.7448571,35.0002857 24.5482857,36.0357143 24.3951429,37.0562857 C24.1962857,38.386 23.6734286,38.7785714 22.5791429,38.6808571 C21.8665714,38.6168571 21.1442857,38.6745714 20.4254286,38.6745714 C19.5785714,38.6745714 19.3328571,38.5202857 19.2871429,37.6854286 C19.25,37.0048571 19.294,36.2894286 19.4688571,35.634 C19.8757143,34.1054286 20.2997143,32.5711429 20.8682857,31.0985714 C21.8551429,28.5442857 23.4317143,26.4105714 25.4922857,24.5608571 C27.2362857,22.9951429 29.1962857,21.8425714 31.2757143,20.8671429 C32.7562857,20.1728571 34.3482857,19.7168571 35.9854286,19.5785714 C38.3842857,19.3751429 40.8088571,19.2197143 43.126,20.0682857 C45.214,20.8328571 47.3197143,21.5934286 49.3014286,22.5882857 C50.7431429,23.3128571 52.0071429,24.3991429 53.3311429,25.3517143 C55.4922857,26.9077143 57.0442857,29.0197143 58.642,31.1094286 C60.466,33.4957143 61.1077143,36.2494286 61.4905714,39.1208571 C61.5442857,39.5237143 61.426,39.7054286 60.982,39.7105714 C60.2397143,39.7191429 59.4985714,39.7888571 58.7991429,39.83" id="Fill-6"></path>
                        <path d="M37.8677714,0.625771429 C41.8100571,0.337771429 45.8043429,1.23091429 49.7443429,2.48577143 C50.6854857,2.78577143 51.6294857,3.08348571 52.5883429,3.31491429 C54.4626286,3.76805714 56.1746286,4.59491429 57.8449143,5.52005714 C60.6443429,7.07091429 63.3843429,8.73205714 65.8049143,10.8354857 C67.7466286,12.5229143 69.5546286,14.3646286 71.4426286,16.1166286 C72.7837714,17.3617714 73.7237714,18.9080571 74.7929143,20.3646286 C77.1603429,23.5903429 78.7363429,27.2206286 80.2454857,30.8772 C80.8357714,32.3074857 81.1654857,33.8503429 81.5597714,35.3560571 C81.8283429,36.3817714 82.0009143,37.4320571 82.2174857,38.4709143 C82.3357714,39.0400571 82.2477714,39.2429143 81.6672,39.3640571 C81.0883429,39.4846286 80.4877714,39.5680571 79.8986286,39.5612 C78.8340571,39.5492 77.7712,39.4623429 76.7083429,39.3966286 C76.5134857,39.3846286 76.3197714,39.3326286 76.1294857,39.2846286 C75.3626286,39.0903429 75.2689143,39.0160571 75.3014857,38.2234857 C75.3563429,36.8680571 75.0683429,35.5617714 74.7449143,34.2703429 C74.2900571,32.4537714 73.4323429,30.7834857 72.4397714,29.2217714 C71.0997714,27.1137714 69.5414857,25.1463429 68.1723429,23.0554857 C66.4340571,20.4000571 63.9900571,18.5252 61.4797714,16.7017714 C60.8586286,16.2509143 60.2529143,15.7794857 59.6300571,15.3303429 C57.8043429,14.0154857 55.9894857,12.6840571 54.1346286,11.4109143 C53.5929143,11.0389143 52.9334857,10.8372 52.3254857,10.5629143 C49.6746286,9.36577143 46.9272,8.44691429 44.0660571,7.94062857 C42.6357714,7.68805714 41.1614857,7.56462857 39.7094857,7.58177143 C37.2894857,7.61091429 34.8483429,7.63434286 32.4597714,7.97262857 C30.5192,8.24805714 28.6232,8.9212 26.7437714,9.53034286 C25.2929143,10.0006286 23.8717714,10.5880571 22.4883429,11.2326286 C21.5763429,11.6572 20.7169143,12.2234857 19.8997714,12.8160571 C16.8992,14.9926286 14.1769143,17.4829143 11.9832,20.4772 C10.3889143,22.6537714 8.93805714,24.9572 7.92434286,27.4640571 C7.08377143,29.5412 6.35691429,31.6777714 6.08548571,33.9394857 C5.9352,35.1886286 5.64434286,36.4223429 5.38834286,37.6572 C5.35805714,37.8017714 5.16091429,37.9720571 5.0072,38.0177714 C4.72777143,38.1012 4.42377143,38.1280571 4.12948571,38.1292 C3.0472,38.1326286 1.96034286,38.1749143 0.884342857,38.0880571 C0.0289142857,38.0189143 -0.0116571429,37.8966286 0.00148571429,37.0503429 C0.0294857143,35.2874857 0.326057143,33.5617714 0.662628571,31.8337714 C1.2472,28.8332 2.16091429,25.9360571 3.33005714,23.1212 C4.41634286,20.5046286 5.84434286,18.0737714 7.59005714,15.8400571 C8.82262857,14.2629143 10.0329143,12.6726286 11.5969143,11.3737714 C12.5603429,10.5737714 13.3174857,9.53148571 14.2414857,8.67948571 C17.2534857,5.90234286 20.7357714,3.91777143 24.6294857,2.64977143 C28.8557714,1.27434286 33.1952,0.631485714 37.8677714,0.625771429" id="Fill-1"></path>
                    </g>
                </g>
            </g>
        </g>
    </g>
</svg>