<?xml version="1.0" encoding="UTF-8"?>
<svg width="48px" height="48px" viewBox="0 0 48 48" version="1.1" xmlns="http://www.w3.org/2000/svg" xmlns:xlink="http://www.w3.org/1999/xlink">
    <!-- Generator: Sketch 55.1 (78136) - https://sketchapp.com -->
    <title>icons/storefront</title>
    <desc>Created with Sketch.</desc>
    <g id="icons/storefront" stroke="none" stroke-width="1" fill="none" fill-rule="evenodd">
        <path d="M47.092,15.5982222 L45.9266667,4.31288889 C45.9266667,4.31288889 45.9266667,4.25155556 45.9266667,4.25155556 L45.9266667,1.00088889 C45.9266667,0.632888889 45.6813333,0.387555556 45.3133333,0.387555556 L2.68666667,0.387555556 C2.31866667,0.387555556 2.07333333,0.632888889 2.07333333,1.00088889 C2.07333333,1.00088889 2.07333333,4.31288889 2.07333333,4.31288889 C2.07333333,4.31288889 0.908,15.6595556 0.908,15.7208889 C0.908,15.7208889 0.908,15.7822222 0.908,15.7822222 C0.908,16.8248889 1.33733333,17.7448889 2.07333333,18.3582222 L2.07333333,46.5102222 C2.07333333,46.8782222 2.31866667,47.1235556 2.68666667,47.1235556 L45.1906667,47.1235556 C45.5586667,47.1235556 45.804,46.8782222 45.804,46.5102222 L45.804,18.4195556 C46.6013333,17.8062222 47.092,16.8248889 47.092,15.7208889 C47.092,15.7208889 47.092,15.5982222 47.092,15.5982222 Z M43.7186667,17.9288889 C42.676,17.9288889 41.8173333,17.2542222 41.572,16.2728889 L45.804,16.2728889 C45.5586667,17.1928889 44.7,17.9288889 43.7186667,17.9288889 Z M2.25733333,16.2728889 L6.48933333,16.2728889 C6.244,17.1928889 5.38533333,17.9288889 4.34266667,17.9288889 C3.3,17.9288889 2.50266667,17.1928889 2.25733333,16.2728889 Z M3.3,4.86488889 L6.48933333,4.86488889 L6.48933333,15.0462222 L2.25733333,15.0462222 L3.3,4.86488889 Z M45.804,15.0462222 L41.3266667,15.0462222 L41.3266667,4.86488889 L44.7613333,4.86488889 L45.804,15.0462222 Z M40.1,15.0462222 L35.684,15.0462222 L35.684,4.86488889 L40.1,4.86488889 L40.1,15.0462222 Z M24.644,15.0462222 L24.644,4.86488889 L29.06,4.86488889 L29.06,15.0462222 L24.644,15.0462222 Z M23.4173333,15.0462222 L19.0013333,15.0462222 L19.0013333,4.86488889 L23.4173333,4.86488889 L23.4173333,15.0462222 Z M17.7746667,15.0462222 L13.3586667,15.0462222 L13.3586667,4.86488889 L17.7746667,4.86488889 L17.7746667,15.0462222 Z M23.356,16.2728889 C23.1106667,17.1928889 22.252,17.9288889 21.2093333,17.9288889 C20.1666667,17.9288889 19.308,17.2542222 19.0626667,16.2728889 L23.356,16.2728889 Z M28.9373333,16.2728889 C28.692,17.1928889 27.8333333,17.9288889 26.852,17.9288889 C25.8706667,17.9288889 24.9506667,17.2542222 24.7053333,16.2728889 L28.9373333,16.2728889 Z M30.2866667,4.86488889 L34.4573333,4.86488889 L34.4573333,15.0462222 L30.2866667,15.0462222 L30.2866667,4.86488889 Z M35.684,3.63822222 L35.684,1.61422222 L40.1,1.61422222 L40.1,3.63822222 L35.684,3.63822222 Z M34.4573333,3.63822222 L30.2866667,3.63822222 L30.2866667,1.61422222 L34.4573333,1.61422222 L34.4573333,3.63822222 Z M29.06,3.63822222 L24.644,3.63822222 L24.644,1.61422222 L29.06,1.61422222 L29.06,3.63822222 Z M23.4173333,3.63822222 L19.0013333,3.63822222 L19.0013333,1.61422222 L23.4173333,1.61422222 L23.4173333,3.63822222 Z M17.7746667,3.63822222 L13.3586667,3.63822222 L13.3586667,1.61422222 L17.7746667,1.61422222 L17.7746667,3.63822222 Z M12.1933333,3.63822222 L7.716,3.63822222 L7.716,1.61422222 L12.1933333,1.61422222 L12.1933333,3.63822222 Z M12.1933333,4.86488889 L12.1933333,15.0462222 L7.716,15.0462222 L7.716,4.86488889 L12.1933333,4.86488889 Z M12.0706667,16.2728889 C11.8253333,17.1928889 10.9666667,17.9288889 9.924,17.9288889 C8.88133333,17.9288889 8.02266667,17.2542222 7.77733333,16.2728889 L12.0706667,16.2728889 Z M17.7133333,16.2728889 C17.468,17.1928889 16.6093333,17.9288889 15.5666667,17.9288889 C14.524,17.9288889 13.6653333,17.2542222 13.42,16.2728889 L17.7133333,16.2728889 Z M17.7133333,44.2408889 L30.2253333,44.2408889 L30.2253333,45.8355556 L17.7133333,45.8355556 L17.7133333,44.2408889 Z M30.2253333,43.0142222 L17.7133333,43.0142222 L17.7133333,18.4195556 C17.9586667,18.2355556 18.204,17.9288889 18.4493333,17.6835556 C19.0626667,18.6035556 20.1053333,19.1555556 21.2706667,19.1555556 C22.436,19.1555556 23.4786667,18.5422222 24.092,17.6835556 C24.7053333,18.6035556 25.748,19.1555556 26.9133333,19.1555556 C28.0786667,19.1555556 29.1213333,18.5422222 29.7346667,17.6835556 C29.9186667,17.9288889 30.1026667,18.1128889 30.2866667,18.2968889 L30.2866667,43.0142222 L30.2253333,43.0142222 Z M30.348,16.2728889 L34.58,16.2728889 C34.3346667,17.1928889 33.476,17.9288889 32.4333333,17.9288889 C31.3906667,17.9288889 30.5933333,17.1928889 30.348,16.2728889 Z M40.2226667,16.2728889 C39.9773333,17.1928889 39.1186667,17.9288889 38.076,17.9288889 C37.0333333,17.9288889 36.1746667,17.2542222 35.9293333,16.2728889 L40.2226667,16.2728889 Z M44.7613333,3.63822222 L41.388,3.63822222 L41.388,1.61422222 L44.7613333,1.61422222 L44.7613333,3.63822222 Z M3.3,1.55288889 L6.428,1.55288889 L6.428,3.57688889 L3.3,3.57688889 L3.3,1.55288889 Z M4.34266667,19.1555556 C5.508,19.1555556 6.55066667,18.5422222 7.164,17.6835556 C7.77733333,18.6035556 8.82,19.1555556 9.98533333,19.1555556 C11.1506667,19.1555556 12.1933333,18.5422222 12.8066667,17.6835556 C13.42,18.6035556 14.4626667,19.1555556 15.628,19.1555556 C15.9346667,19.1555556 16.2413333,19.0942222 16.4866667,19.0328889 L16.4866667,35.4702222 L3.3,35.4702222 L3.3,18.9715556 C3.668,19.0942222 3.97466667,19.1555556 4.34266667,19.1555556 Z M3.3,36.6968889 L16.4253333,36.6968889 L16.4253333,45.8355556 L3.3,45.8355556 L3.3,36.6968889 Z M44.5773333,45.8355556 L31.452,45.8355556 L31.452,36.6968889 L44.5773333,36.6968889 L44.5773333,45.8355556 Z M44.5773333,35.4702222 L31.452,35.4702222 L31.452,18.9715556 C31.7586667,19.0942222 32.1266667,19.1555556 32.4946667,19.1555556 C33.66,19.1555556 34.7026667,18.5422222 35.316,17.6835556 C35.9293333,18.6035556 36.972,19.1555556 38.1373333,19.1555556 C39.3026667,19.1555556 40.3453333,18.5422222 40.9586667,17.6835556 C41.572,18.6035556 42.6146667,19.1555556 43.78,19.1555556 C44.0866667,19.1555556 44.3933333,19.0942222 44.7,19.0328889 L44.7,35.4702222 L44.5773333,35.4702222 Z M28.7875556,29.2755556 C29.1555556,29.2755556 29.4008889,29.5208889 29.4008889,29.8888889 L29.4008889,32.2808889 C29.4008889,32.6488889 29.1555556,32.8942222 28.7875556,32.8942222 C28.4195556,32.8942222 28.1742222,32.6488889 28.1742222,32.2808889 L28.1742222,29.8888889 C28.1742222,29.5208889 28.4195556,29.2755556 28.7875556,29.2755556 Z" id="Shape" fill="#3C86F4" fill-rule="nonzero"></path>
    </g>
</svg>