<?xml version="1.0" encoding="UTF-8"?>
<svg width="321px" height="109px" viewBox="0 0 321 109" version="1.1" xmlns="http://www.w3.org/2000/svg" xmlns:xlink="http://www.w3.org/1999/xlink">
    <!-- Generator: Sketch 54.1 (76490) - https://sketchapp.com -->
    <title>Group</title>
    <desc>Created with Sketch.</desc>
    <g id="Landing-Desktop" stroke="none" stroke-width="1" fill="none" fill-rule="evenodd">
        <g id="Landing-1" transform="translate(-1039.000000, -695.000000)" fill="#393536" fill-rule="nonzero">
            <g id="Group" transform="translate(1037.000000, 680.000000)">
                <path d="M16.03,64.77 C7.14,64.77 2.59,56.3 2.59,46.43 C2.59,35.51 8.26,28.3 16.45,28.3 C25.27,28.3 29.89,36.63 29.89,46.57 C29.89,57.42 24.29,64.77 16.03,64.77 Z M16.73,62.6 C20.72,62.6 23.38,58.05 23.38,48.11 C23.38,38.94 21.21,30.47 15.68,30.47 C11.48,30.47 9.03,35.37 9.03,44.96 C9.03,54.2 11.27,62.6 16.73,62.6 Z M60.69,52.94 C60.69,56.72 61.04,59.94 62.51,64 L55.86,64 C55.16,60.71 54.95,56.79 54.95,53.15 L54.95,39.57 C54.95,35.16 53.48,32.71 49.91,32.71 C47.95,32.71 45.43,33.41 42.63,36.77 L42.63,52.94 C42.63,56.72 42.77,59.94 44.31,64 L35.28,64 C36.75,59.94 36.89,56.72 36.89,52.94 L36.89,44.05 C36.89,39.43 36.89,34.67 35.28,31.45 C37.45,30.47 39.55,29.42 41.51,28.3 C42.14,29.7 42.63,32.78 42.63,34.81 C45.64,29.98 49.35,28.44 52.85,28.44 C57.47,28.44 60.69,31.24 60.69,38.24 L60.69,52.94 Z M92.26,41.11 L92.26,46.08 L72.94,46.08 C73.36,54.06 76.51,59.24 84.14,59.24 C87.36,59.24 89.32,58.33 91.84,56.23 C91.14,61.06 87.43,64.84 81.2,64.84 C72.8,64.84 66.99,57.7 66.99,46.92 C66.99,37.4 71.33,28.3 80.92,28.3 C89.04,28.3 92.26,34.39 92.26,41.11 Z M83.58,44.4 C85.89,44.4 86.31,43.91 86.31,40.97 C86.31,33.69 83.79,30.33 80.15,30.33 C75.53,30.33 72.87,35.51 72.87,44.19 L72.87,44.4 L83.58,44.4 Z M117.53,31.24 C114.45,31.24 112.49,32.85 112.49,35.51 C112.49,39.15 114.73,40.76 118.79,42.79 L123.34,45.1 C126.21,46.57 129.85,48.81 129.85,54.27 C129.85,61.13 124.18,64.77 118.72,64.77 C113.12,64.77 108.64,61.34 106.54,56.44 L112.07,52.73 C113.47,58.68 116.69,62.04 120.96,62.04 C123.76,62.04 126.07,60.43 126.07,57 C126.07,53.99 123.97,51.96 120.82,50.42 L114.87,47.55 C112.63,46.43 107.94,43.77 107.94,38.59 C107.94,33.06 112.14,28.37 121.45,28.37 C123.76,28.37 126.7,28.86 128.59,29.63 L127.47,38.8 C124.74,33.62 121.73,31.24 117.53,31.24 Z M161.49,64 L155.19,64 C154.56,62.95 154.14,60.99 154,59.24 C151.2,63.09 147.7,64.56 144.2,64.56 C139.09,64.56 136.08,61.76 136.08,54.76 L136.08,44.05 C136.08,39.43 136.01,34.53 134.47,31.31 C136.92,30.47 139.51,29.49 141.82,28.44 L141.82,53.43 C141.82,55.39 141.82,60.29 147.28,60.29 C149.17,60.29 151.41,59.73 153.86,57.14 L153.86,44.05 C153.86,39.57 153.79,34.67 152.25,31.45 C154.7,30.61 157.22,29.63 159.6,28.58 L159.6,52.24 C159.6,57.42 159.74,59.87 161.49,64 Z M191.8,52.94 C191.8,56.72 192.15,59.94 193.62,64 L186.97,64 C186.27,60.71 186.06,56.79 186.06,53.15 L186.06,39.57 C186.06,35.16 184.59,32.71 181.02,32.71 C179.06,32.71 176.54,33.41 173.74,36.77 L173.74,52.94 C173.74,56.72 173.88,59.94 175.42,64 L166.39,64 C167.86,59.94 168,56.72 168,52.94 L168,44.05 C168,39.43 168,34.67 166.39,31.45 C168.56,30.47 170.66,29.42 172.62,28.3 C173.25,29.7 173.74,32.78 173.74,34.81 C176.75,29.98 180.46,28.44 183.96,28.44 C188.58,28.44 191.8,31.24 191.8,38.24 L191.8,52.94 Z M225.19,64 L218.96,64 C218.54,63.09 217.98,61.34 217.77,60.01 C215.74,63.16 212.94,64.49 209.72,64.49 C203,64.49 197.96,58.61 197.96,48.04 C197.96,36.35 204.05,28.51 212.45,28.51 C214.55,28.51 216.3,29 217.7,30.05 C217.7,25.57 217.56,20.95 216.09,17.87 C218.54,17.1 220.99,16.19 223.44,15 L223.44,53.08 C223.44,56.79 223.86,60.01 225.19,64 Z M213.36,59.8 C215.04,59.8 216.37,59.31 217.7,58.19 L217.7,37.96 C217.7,32.08 214.76,30.61 212.17,30.61 C207.34,30.61 204.26,35.65 204.26,45.31 C204.26,55.53 208.25,59.8 213.36,59.8 Z M256.41,64 L250.11,64 C249.48,62.95 248.99,60.85 248.85,59.24 C246.54,62.81 242.55,64.56 238.7,64.56 C233.66,64.56 230.3,61.55 230.3,57 C230.3,50.35 237.51,48.25 241.22,46.92 C245.49,45.38 248.85,43.63 248.85,42.79 L248.85,42.02 C248.85,36.84 248.08,30.33 242.2,30.33 C239.33,30.33 237.37,31.87 237.37,35.3 C237.37,36.91 237.79,39.01 238.84,41.53 L231.7,41.18 L231.7,38.94 C231.7,34.04 234.78,28.3 243.6,28.3 C254.59,28.3 254.59,37.12 254.59,41.18 L254.59,52.24 C254.59,57.42 254.73,59.87 256.41,64 Z M241.78,60.29 C244.51,60.29 246.89,59.24 248.85,57.56 L248.85,49.72 C248.85,48.67 248.85,48.32 246.05,48.32 C238.56,48.32 236.04,50.35 236.04,54.83 C236.04,57.98 237.79,60.29 241.78,60.29 Z M281.54,29 L289.24,29 C286.86,31.66 285.67,34.81 283.92,39.85 L274.54,67.01 C271.6,75.55 269.71,78 264.39,78 L261.73,78 L261.31,70.16 C263.27,71.28 264.95,71.84 266.42,71.84 C269.5,71.84 271.53,69.53 272.72,65.82 L273.77,62.6 L270.97,62.6 L263.55,39.85 C261.87,34.81 260.75,31.8 258.51,29 L269.5,29 C269.15,29.84 268.94,31.38 268.94,33.2 C268.94,35.23 269.22,37.47 269.85,39.5 L275.45,57.49 L281.47,39.5 C282.03,37.82 282.24,35.86 282.24,34.04 C282.24,31.87 281.96,29.98 281.54,29 Z" id="onesunday"></path>
                <path d="M138.7,123 L132.4,123 C131.77,121.95 131.28,119.85 131.14,118.24 C128.83,121.81 124.84,123.56 120.99,123.56 C115.95,123.56 112.59,120.55 112.59,116 C112.59,109.35 119.8,107.25 123.51,105.92 C127.78,104.38 131.14,102.63 131.14,101.79 L131.14,101.02 C131.14,95.84 130.37,89.33 124.49,89.33 C121.62,89.33 119.66,90.87 119.66,94.3 C119.66,95.91 120.08,98.01 121.13,100.53 L113.99,100.18 L113.99,97.94 C113.99,93.04 117.07,87.3 125.89,87.3 C136.88,87.3 136.88,96.12 136.88,100.18 L136.88,111.24 C136.88,116.42 137.02,118.87 138.7,123 Z M124.07,119.29 C126.8,119.29 129.18,118.24 131.14,116.56 L131.14,108.72 C131.14,107.67 131.14,107.32 128.34,107.32 C120.85,107.32 118.33,109.35 118.33,113.83 C118.33,116.98 120.08,119.29 124.07,119.29 Z M154.31,118.59 C155.71,118.59 156.97,118.03 159.07,116.63 C159.07,119.85 155.99,123.77 151.23,123.77 C146.75,123.77 145,120.2 145,114.39 L145,90.03 L141.22,90.03 L141.5,88 L145,88 C145,85.62 144.86,84.36 144.58,81.56 C146.68,80.79 148.64,79.81 150.74,78.62 L150.74,88 L158.93,88 L158.58,90.03 L150.74,90.03 L150.74,113.62 C150.74,114.88 150.74,118.59 154.31,118.59 Z M198.83,123 L192.53,123 C191.9,121.95 191.41,119.85 191.27,118.24 C188.96,121.81 184.97,123.56 181.12,123.56 C176.08,123.56 172.72,120.55 172.72,116 C172.72,109.35 179.93,107.25 183.64,105.92 C187.91,104.38 191.27,102.63 191.27,101.79 L191.27,101.02 C191.27,95.84 190.5,89.33 184.62,89.33 C181.75,89.33 179.79,90.87 179.79,94.3 C179.79,95.91 180.21,98.01 181.26,100.53 L174.12,100.18 L174.12,97.94 C174.12,93.04 177.2,87.3 186.02,87.3 C197.01,87.3 197.01,96.12 197.01,100.18 L197.01,111.24 C197.01,116.42 197.15,118.87 198.83,123 Z M184.2,119.29 C186.93,119.29 189.31,118.24 191.27,116.56 L191.27,108.72 C191.27,107.67 191.27,107.32 188.47,107.32 C180.98,107.32 178.46,109.35 178.46,113.83 C178.46,116.98 180.21,119.29 184.2,119.29 Z M224.66,118.59 C226.06,118.59 227.32,118.03 229.42,116.63 C229.42,119.85 226.34,123.77 221.58,123.77 C217.1,123.77 215.35,120.2 215.35,114.39 L215.35,90.03 L211.57,90.03 L211.85,88 L215.35,88 C215.35,85.62 215.21,84.36 214.93,81.56 C217.03,80.79 218.99,79.81 221.09,78.62 L221.09,88 L229.28,88 L228.93,90.03 L221.09,90.03 L221.09,113.62 C221.09,114.88 221.09,118.59 224.66,118.59 Z M237.4,83.31 C234.74,83.31 232.85,81.28 232.85,78.76 C232.85,76.24 234.74,74.21 237.4,74.21 C240.06,74.21 242.02,76.24 242.02,78.76 C242.02,81.28 240.06,83.31 237.4,83.31 Z M233.2,123 C234.67,118.94 234.81,115.72 234.81,111.94 L234.81,103.05 C234.81,98.43 234.74,93.53 233.2,90.31 C235.65,89.47 238.17,88.49 240.55,87.44 L240.55,111.94 C240.55,115.72 240.69,118.94 242.23,123 L233.2,123 Z M291.09,111.94 C291.09,115.72 291.44,118.94 292.91,123 L286.26,123 C285.56,119.71 285.35,115.79 285.35,112.15 L285.35,98.57 C285.35,94.16 283.88,91.71 280.31,91.71 C278.35,91.71 275.76,92.41 272.96,95.84 C273.03,96.33 273.03,96.75 273.03,97.24 L273.03,111.94 C273.03,115.72 273.38,118.94 274.85,123 L267.29,123 L267.29,98.57 C267.29,94.16 265.82,91.71 262.25,91.71 C260.29,91.71 257.77,92.41 254.97,95.77 L254.97,111.94 C254.97,115.72 255.11,118.94 256.65,123 L247.62,123 C249.09,118.94 249.23,115.72 249.23,111.94 L249.23,103.05 C249.23,98.43 249.23,93.67 247.62,90.45 C249.79,89.47 251.89,88.42 253.85,87.3 C254.48,88.7 254.97,91.78 254.97,93.81 C257.98,88.98 261.69,87.44 265.19,87.44 C269.11,87.44 271.98,89.4 272.82,94.23 C275.83,89.12 279.61,87.44 283.25,87.44 C287.87,87.44 291.09,90.24 291.09,97.24 L291.09,111.94 Z M322.66,100.11 L322.66,105.08 L303.34,105.08 C303.76,113.06 306.91,118.24 314.54,118.24 C317.76,118.24 319.72,117.33 322.24,115.23 C321.54,120.06 317.83,123.84 311.6,123.84 C303.2,123.84 297.39,116.7 297.39,105.92 C297.39,96.4 301.73,87.3 311.32,87.3 C319.44,87.3 322.66,93.39 322.66,100.11 Z M313.98,103.4 C316.29,103.4 316.71,102.91 316.71,99.97 C316.71,92.69 314.19,89.33 310.55,89.33 C305.93,89.33 303.27,94.51 303.27,103.19 L303.27,103.4 L313.98,103.4 Z" id="atatime"></path>
            </g>
        </g>
    </g>
</svg>